<svg width="144" height="144" viewBox="0 0 144 144" fill="none" xmlns="http://www.w3.org/2000/svg">
<rect width="144" height="144" fill="black"/>
<path d="M54.5461 19.5402C36.5024 22.2641 25.0424 37.3514 20 54.7507V125.836H29.9652L29.9387 61.6998C31.1278 37.4976 57.4692 21.1147 79.0738 33.8835C98.9578 45.6358 101.263 74.6147 83.432 89.2835C79.034 92.9042 71.022 94.8109 77.785 101.601C84.5481 108.39 96.6658 116.07 104.678 122.541C105.708 123.371 108.152 125.65 108.152 125.65L124.303 125.836L89.1055 97.6012C113.162 78.4081 110.458 39.9822 83.5582 24.7421C83.5582 24.7421 71.9985 16.9094 54.5461 19.5402Z" fill="white"/>
<path d="M91.0853 125.836H75.1409L50.8988 104.564C50.2411 104.311 49.9754 104.676 50.0219 105.434C50.075 106.311 50.56 125.836 50.56 125.836H39.9305V84.3009L40.9336 83.3044L91.0853 125.836Z" fill="white"/>
<path d="M62.7043 86.3272C75.7956 86.3272 86.4083 75.7146 86.4083 62.6232C86.4083 49.5319 75.7956 38.9193 62.7043 38.9193C49.613 38.9193 39.0004 49.5319 39.0004 62.6232C39.0004 75.7146 49.613 86.3272 62.7043 86.3272Z" fill="#FA8A00"/>
</svg>
